<?xml version="1.0" encoding="UTF-8"?><svg id="Layer_2" xmlns="http://www.w3.org/2000/svg" viewBox="0 0 30 30"><g id="Layer_1-2"><path d="m12.27,15.67c-.25-.11-.6-.17-1.05-.18h-2.59v2.8h2.55c.45,0,.81-.06,1.06-.18.46-.23.69-.67.69-1.31,0-.55-.22-.92-.67-1.13Z" style="fill:#cfbb01;"/><path d="m19.6,13.82c-.52,0-.92.15-1.21.44-.29.3-.47.7-.54,1.2h3.5c-.04-.54-.22-.95-.54-1.23-.32-.28-.73-.42-1.21-.42Z" style="fill:#cfbb01;"/><path d="m15,0h0C6.72,0,0,6.72,0,15h0c0,8.28,6.72,15,15,15h0c8.28,0,15-6.72,15-15h0C30,6.72,23.28,0,15,0Zm2.19,10.22h4.56v1.06h-4.56v-1.06Zm-2.49,8.4c-.2.33-.45.6-.74.83-.34.26-.73.43-1.19.53-.46.1-.95.14-1.48.14h-4.73v-10.5h5.08c1.28.02,2.19.39,2.72,1.12.32.45.48.98.48,1.6s-.16,1.16-.49,1.55c-.18.22-.45.42-.8.6.54.19.94.5,1.21.93.27.42.41.94.41,1.54s-.16,1.18-.47,1.68Zm8.76-1.82h-5.66c.03.78.3,1.33.81,1.64.31.19.68.29,1.12.29.46,0,.84-.12,1.13-.36.16-.13.3-.31.42-.53h2.07c-.05.46-.31.93-.75,1.4-.69.76-1.67,1.13-2.92,1.13-1.03,0-1.95-.32-2.74-.96-.79-.64-1.19-1.67-1.19-3.11,0-1.35.36-2.38,1.07-3.09.71-.72,1.64-1.08,2.78-1.08.68,0,1.29.12,1.83.36.54.24.99.63,1.34,1.15.32.46.52,1,.62,1.61.05.36.08.87.07,1.54Z" style="fill:#cfbb01;"/><path d="m12.3,13.5c.28-.17.43-.48.43-.92,0-.49-.19-.81-.56-.97-.32-.11-.74-.16-1.24-.16h-2.29v2.32h2.55c.46,0,.83-.09,1.11-.26Z" style="fill:#cfbb01;"/></g></svg>