<?xml version="1.0" encoding="UTF-8"?><svg id="Layer_2" xmlns="http://www.w3.org/2000/svg" viewBox="0 0 30 30"><g id="Layer_1-2"><path d="m15,0C6.72,0,0,6.72,0,15h0c0,8.28,6.72,15,15,15s15-6.72,15-15h0C30,6.72,23.28,0,15,0Zm-3.7,21.69h-3.1v-10.03h3.1v10.03Zm-1.57-11.34c-1.01,0-1.84-.83-1.84-1.85s.82-1.85,1.84-1.85,1.84.83,1.84,1.85-.82,1.85-1.84,1.85Zm13.2,11.34h-3.09v-5.26c0-1.44-.55-2.25-1.69-2.25-1.24,0-1.89.84-1.89,2.25v5.26h-2.98v-10.03h2.98v1.35s.9-1.66,3.02-1.66,3.65,1.3,3.65,3.99v6.35Z" style="fill:#cfbb01;"/></g></svg>