<?xml version="1.0" encoding="UTF-8"?><svg id="Layer_2" xmlns="http://www.w3.org/2000/svg" viewBox="0 0 30 30"><g id="Layer_1-2"><path d="m15,0C6.72,0,0,6.72,0,15s6.72,15,15,15,15-6.72,15-15S23.28,0,15,0Zm7.31,21.49s-.07.08-.1.13c-.03.05-.07.09-.11.14-.68.67-1.45,1.05-2.33,1.15-.87.1-1.79-.03-2.76-.38s-1.94-.86-2.91-1.54c-.98-.68-1.9-1.46-2.77-2.33-.88-.88-1.65-1.8-2.34-2.77s-1.2-1.94-1.54-2.91c-.35-.97-.47-1.89-.38-2.76.1-.87.48-1.65,1.15-2.33.03-.03.06-.06.09-.09s.07-.06.11-.08c.32-.23.63-.4.94-.53.31-.12.6-.15.87-.1s.52.24.74.54l1.89,2.69c.3.41.42.78.38,1.1-.04.32-.24.67-.59,1.05l-.61.65c-.09.1-.13.21-.13.32,0,.11.04.22.09.31.14.26.39.6.73,1.02s.73.85,1.16,1.29.87.83,1.29,1.16.76.58,1.02.74c.11.06.22.09.35.09s.24-.04.32-.13l.61-.61c.36-.35.7-.55,1.03-.59s.7.08,1.11.37c.38.27.71.5.99.7s.53.37.74.51c.21.14.4.28.57.39.16.12.32.23.46.34.41.34.59.73.54,1.18-.05.45-.27.88-.64,1.29Z" style="fill:#cfbb01;"/></g></svg>