<?xml version="1.0" encoding="UTF-8"?><svg id="Layer_2" xmlns="http://www.w3.org/2000/svg" viewBox="0 0 30 30"><g id="Layer_1-2"><path d="m15,0C6.72,0,0,6.72,0,15s6.72,15,15,15,15-6.72,15-15S23.28,0,15,0Zm-6.8,8.81c.21-.06.48-.09.79-.09h12.08c.31,0,.58.03.79.09.21.06.37.13.46.22l-6.47,6.46c-.24.25-.51.38-.81.38-.13,0-.26-.03-.41-.08-.14-.05-.28-.15-.43-.3l-6.46-6.46c.09-.08.24-.16.46-.22Zm-1.26,10.26v-8.15c0-.52.05-.85.14-1.01l5.14,5.12-5.1,5.1c-.12-.18-.18-.54-.18-1.06Zm14.1,2.21h-12.05c-.61,0-1.01-.1-1.2-.29l5.26-5.24.51.48c.49.45.98.67,1.46.67s.96-.22,1.45-.67l.53-.48,5.24,5.24c-.18.19-.58.29-1.2.29Zm2.01-2.21c0,.53-.06.88-.18,1.06l-5.1-5.1,5.14-5.12c.09.15.14.49.14,1.01v8.15Z" style="fill:#cfbb01;"/></g></svg>