<?xml version="1.0" encoding="UTF-8"?><svg id="Layer_2" xmlns="http://www.w3.org/2000/svg" viewBox="0 0 30 30"><g id="Layer_1-2"><path d="m15,0C6.72,0,0,6.72,0,15s6.72,15,15,15,15-6.72,15-15S23.28,0,15,0Zm8.07,16.53c0,1.02-.28,1.81-.83,2.38s-1.35.85-2.38.85h-.43v2.15c0,.43-.19.64-.57.64-.21,0-.45-.13-.72-.39l-2.69-2.4h-5.3c-1.02,0-1.81-.28-2.37-.85-.56-.56-.84-1.36-.84-2.38v-5.85c0-1.01.28-1.8.84-2.37.56-.56,1.35-.85,2.37-.85h9.71c1.03,0,1.82.28,2.38.85s.83,1.35.83,2.37v5.85Z" style="fill:#cfbb01;"/></g></svg>