<?xml version="1.0" encoding="UTF-8"?><svg xmlns="http://www.w3.org/2000/svg" viewBox="0 0 54.57 28.42"><g style="isolation:isolate;"><g id="Layer_1"><path d="m43.67,19.76v.48h-10.84v-.48c1.47-.11,1.95-.26,1.95-1.44V6.34c0-1.66-.63-2.73-2.4-2.73-1.03,0-1.92.3-2.73.74v13.97c0,1.18.44,1.33,1.92,1.44v.48h-10.69v-.48c1.47-.11,1.95-.26,1.95-1.44V6.34c0-1.66-.63-2.73-2.36-2.73-1.07,0-1.92.3-2.76.74v13.97c0,1.18.48,1.33,1.95,1.44v.48h-10.84v-.48c1.47-.11,2.06-.26,2.06-1.44V4.35l-2.06-2.06v-.15L17.72,0h.15l-.15,4.09c1.11-1.73,3.58-4.09,6.67-4.09,2.76,0,4.64,1.55,5.23,4.09,1.11-1.73,3.61-4.09,6.67-4.09,3.39,0,5.27,2.29,5.27,6.05v12.28c0,1.18.63,1.33,2.1,1.44Z" style="fill:#fff;"/><path d="m.22,18.73l-.22-5.68h.33c.92,4.09,3.61,7,6.89,7,1.99,0,3.39-1.14,3.39-3.17C10.62,11.91.11,14.19.11,6.6.11,2.54,3.76,0,7.96,0c2.47,0,4.46.66,6.05,1.7v4.76h-.37c-.41-2.69-2.84-5.9-5.82-5.9-1.81,0-2.99,1.11-2.99,2.84,0,4.68,10.62,2.69,10.62,10.21,0,4.31-3.65,7-8.29,7-2.54,0-5.35-.74-6.93-1.88Z" style="fill:#cfbb01;"/><path d="m35.07,2.99c-.74-1.47-1-1.81-2.21-2.1V.37h11.83v.52c-1.84.18-2.47.55-2.47,1.22,0,.29.11.66.29,1.07l4.42,10.51,3.72-9.81c.26-.7.33-1.11.33-1.51,0-1.03-1.07-1.36-3.13-1.47V.37h6.71v.52c-1.33.22-1.92.74-2.65,2.47l-7.93,19.35c-1.7,4.05-3.13,5.71-5.38,5.71-1.33,0-2.58-.77-2.95-1.95v-2.25c.92.22,1.81.48,3.17.48,1.77,0,3.5-.33,4.72-2.91l.44-.92L35.07,2.99Z" style="fill:#cfbb01;"/><path d="m43.67,19.76v.48h-10.84v-.48c1.47-.11,1.95-.26,1.95-1.44V6.34c0-1.66-.63-2.73-2.4-2.73-1.03,0-1.92.3-2.73.74v13.97c0,1.18.44,1.33,1.92,1.44v.48h-10.69v-.48c1.47-.11,1.95-.26,1.95-1.44V6.34c0-1.66-.63-2.73-2.36-2.73-1.07,0-1.92.3-2.76.74v13.97c0,1.18.48,1.33,1.95,1.44v.48h-10.84v-.48c1.47-.11,2.06-.26,2.06-1.44V4.35l-2.06-2.06v-.15L17.72,0h.15l-.15,4.09c1.11-1.73,3.58-4.09,6.67-4.09,2.76,0,4.64,1.55,5.23,4.09,1.11-1.73,3.61-4.09,6.67-4.09,3.39,0,5.27,2.29,5.27,6.05v12.28c0,1.18.63,1.33,2.1,1.44Z" style="fill:#bab6b5; mix-blend-mode:multiply;"/></g></g></svg>